<svg xmlns="http://www.w3.org/2000/svg" xmlns:xlink="http://www.w3.org/1999/xlink" width="1024" zoomAndPan="magnify" viewBox="0 0 768 767.999994" height="1024" preserveAspectRatio="xMidYMid meet" version="1.0"><path fill="#ffffff" d="M 655.53125 112.46875 C 583.003906 39.945312 486.574219 0 384 0 C 281.425781 0 184.996094 39.945312 112.46875 112.46875 C 39.945312 184.996094 0 281.433594 0 384 C 0 486.566406 39.945312 583.003906 112.46875 655.53125 C 184.996094 728.054688 281.425781 768 384 768 C 486.574219 768 583.003906 728.054688 655.53125 655.53125 C 728.054688 583.003906 768 486.574219 768 384 C 768 281.425781 728.054688 184.996094 655.53125 112.46875 Z M 655.53125 112.46875 " fill-opacity="1" fill-rule="nonzero"/><path fill="#000000" d="M 475.707031 201.613281 C 477.210938 203.113281 478.671875 204.652344 480.097656 206.222656 C 481.523438 207.796875 482.910156 209.402344 484.253906 211.042969 C 485.601562 212.683594 486.90625 214.355469 488.171875 216.0625 C 489.4375 217.765625 490.65625 219.5 491.835938 221.265625 C 493.015625 223.03125 494.152344 224.824219 495.242188 226.644531 C 496.332031 228.464844 497.378906 230.3125 498.378906 232.183594 C 499.378906 234.054688 500.335938 235.949219 501.242188 237.867188 C 502.148438 239.789062 503.007812 241.726562 503.820312 243.6875 C 504.632812 245.648438 505.398438 247.628906 506.113281 249.628906 C 506.828125 251.625 507.492188 253.640625 508.109375 255.671875 C 508.726562 257.703125 509.292969 259.746094 509.808594 261.804688 C 510.324219 263.863281 510.789062 265.933594 511.203125 268.015625 C 511.617188 270.097656 511.976562 272.1875 512.289062 274.289062 C 512.601562 276.386719 512.859375 278.496094 513.070312 280.605469 C 513.277344 282.71875 513.433594 284.835938 513.539062 286.953125 C 513.640625 289.074219 513.695312 291.195312 513.695312 293.320312 C 513.695312 295.441406 513.640625 297.5625 513.539062 299.683594 C 513.433594 301.800781 513.277344 303.917969 513.070312 306.03125 C 512.859375 308.140625 512.601562 310.25 512.289062 312.347656 C 511.976562 314.449219 511.617188 316.539062 511.203125 318.621094 C 510.789062 320.703125 510.324219 322.773438 509.808594 324.832031 C 509.292969 326.890625 508.726562 328.933594 508.109375 330.964844 C 507.492188 332.996094 506.828125 335.011719 506.113281 337.011719 C 505.398438 339.007812 504.632812 340.988281 503.820312 342.949219 C 503.007812 344.910156 502.148438 346.847656 501.242188 348.769531 C 500.335938 350.6875 499.378906 352.582031 498.378906 354.453125 C 497.378906 356.324219 496.332031 358.171875 495.242188 359.992188 C 494.152344 361.8125 493.015625 363.605469 491.835938 365.371094 C 490.65625 367.136719 489.4375 368.871094 488.171875 370.574219 C 486.90625 372.28125 485.601562 373.953125 484.253906 375.59375 C 482.910156 377.234375 481.523438 378.839844 480.097656 380.414062 C 478.671875 381.984375 477.210938 383.523438 475.707031 385.023438 C 474.207031 386.523438 472.671875 387.988281 471.097656 389.414062 C 469.523438 390.839844 467.917969 392.222656 466.277344 393.570312 C 464.636719 394.917969 462.964844 396.222656 461.257812 397.488281 C 459.554688 398.75 457.820312 399.972656 456.054688 401.152344 C 454.289062 402.332031 452.496094 403.464844 450.675781 404.558594 C 448.855469 405.648438 447.011719 406.695312 445.140625 407.695312 C 443.265625 408.695312 441.371094 409.648438 439.453125 410.558594 C 437.535156 411.464844 435.59375 412.324219 433.632812 413.136719 C 431.671875 413.949219 429.691406 414.710938 427.695312 415.425781 C 425.695312 416.144531 423.679688 416.808594 421.648438 417.425781 C 419.621094 418.039062 417.574219 418.605469 415.515625 419.121094 C 413.457031 419.636719 411.386719 420.101562 409.304688 420.515625 C 407.222656 420.929688 405.132812 421.292969 403.03125 421.605469 C 400.933594 421.917969 398.828125 422.175781 396.714844 422.382812 C 394.601562 422.59375 392.488281 422.75 390.367188 422.851562 C 388.246094 422.957031 386.125 423.007812 384.003906 423.007812 C 381.878906 423.007812 379.757812 422.957031 377.640625 422.851562 C 375.519531 422.75 373.402344 422.59375 371.292969 422.382812 C 369.179688 422.175781 367.074219 421.917969 364.972656 421.605469 C 362.875 421.292969 360.785156 420.929688 358.703125 420.515625 C 356.621094 420.101562 354.550781 419.636719 352.492188 419.121094 C 350.433594 418.605469 348.386719 418.039062 346.355469 417.425781 C 344.324219 416.808594 342.308594 416.144531 340.3125 415.425781 C 338.3125 414.710938 336.332031 413.949219 334.371094 413.136719 C 332.410156 412.324219 330.472656 411.464844 328.554688 410.558594 C 326.632812 409.648438 324.738281 408.695312 322.867188 407.695312 C 320.996094 406.695312 319.148438 405.648438 317.328125 404.558594 C 315.507812 403.464844 313.714844 402.332031 311.949219 401.152344 C 310.1875 399.972656 308.453125 398.75 306.746094 397.488281 C 305.042969 396.222656 303.371094 394.917969 301.726562 393.570312 C 300.085938 392.222656 298.480469 390.839844 296.910156 389.414062 C 295.335938 387.988281 293.800781 386.523438 292.296875 385.023438 C 290.796875 383.523438 289.335938 381.984375 287.910156 380.414062 C 286.484375 378.839844 285.097656 377.234375 283.75 375.59375 C 282.40625 373.953125 281.097656 372.28125 279.835938 370.574219 C 278.570312 368.871094 277.347656 367.136719 276.167969 365.371094 C 274.992188 363.605469 273.855469 361.8125 272.765625 359.992188 C 271.671875 358.171875 270.628906 356.324219 269.625 354.453125 C 268.625 352.582031 267.671875 350.6875 266.765625 348.769531 C 265.855469 346.847656 264.996094 344.910156 264.183594 342.949219 C 263.371094 340.988281 262.609375 339.007812 261.894531 337.011719 C 261.179688 335.011719 260.511719 332.996094 259.898438 330.964844 C 259.28125 328.933594 258.714844 326.890625 258.199219 324.832031 C 257.683594 322.773438 257.21875 320.703125 256.804688 318.621094 C 256.390625 316.539062 256.027344 314.449219 255.714844 312.347656 C 255.40625 310.25 255.144531 308.144531 254.9375 306.03125 C 254.730469 303.917969 254.574219 301.800781 254.46875 299.683594 C 254.363281 297.5625 254.3125 295.441406 254.3125 293.320312 C 254.3125 291.195312 254.363281 289.074219 254.46875 286.953125 C 254.574219 284.835938 254.730469 282.71875 254.9375 280.605469 C 255.144531 278.496094 255.40625 276.386719 255.714844 274.289062 C 256.027344 272.1875 256.390625 270.097656 256.804688 268.015625 C 257.21875 265.933594 257.683594 263.863281 258.199219 261.804688 C 258.714844 259.746094 259.28125 257.703125 259.898438 255.671875 C 260.511719 253.640625 261.179688 251.625 261.894531 249.628906 C 262.609375 247.628906 263.371094 245.648438 264.183594 243.6875 C 264.996094 241.726562 265.855469 239.789062 266.765625 237.867188 C 267.671875 235.949219 268.625 234.054688 269.625 232.183594 C 270.628906 230.3125 271.671875 228.464844 272.765625 226.644531 C 273.855469 224.824219 274.992188 223.03125 276.167969 221.265625 C 277.347656 219.5 278.570312 217.765625 279.835938 216.0625 C 281.097656 214.355469 282.40625 212.683594 283.75 211.042969 C 285.097656 209.402344 286.484375 207.796875 287.910156 206.222656 C 289.335938 204.652344 290.796875 203.113281 292.296875 201.613281 C 293.800781 200.113281 295.335938 198.648438 296.910156 197.222656 C 298.480469 195.796875 300.085938 194.414062 301.726562 193.066406 C 303.371094 191.71875 305.042969 190.414062 306.746094 189.148438 C 308.453125 187.886719 310.1875 186.664062 311.949219 185.484375 C 313.714844 184.304688 315.507812 183.171875 317.328125 182.078125 C 319.148438 180.988281 320.996094 179.941406 322.867188 178.941406 C 324.738281 177.941406 326.632812 176.988281 328.554688 176.078125 C 330.472656 175.171875 332.410156 174.3125 334.371094 173.5 C 336.332031 172.6875 338.3125 171.925781 340.3125 171.210938 C 342.308594 170.496094 344.324219 169.828125 346.355469 169.210938 C 348.386719 168.597656 350.433594 168.03125 352.492188 167.515625 C 354.550781 167 356.621094 166.535156 358.703125 166.121094 C 360.785156 165.707031 362.875 165.34375 364.972656 165.03125 C 367.074219 164.71875 369.179688 164.460938 371.292969 164.253906 C 373.402344 164.042969 375.519531 163.886719 377.640625 163.785156 C 379.757812 163.679688 381.878906 163.628906 384.003906 163.628906 C 386.125 163.628906 388.246094 163.679688 390.367188 163.785156 C 392.488281 163.886719 394.601562 164.042969 396.714844 164.253906 C 398.828125 164.460938 400.933594 164.71875 403.03125 165.03125 C 405.132812 165.34375 407.222656 165.707031 409.304688 166.121094 C 411.386719 166.535156 413.457031 167 415.515625 167.515625 C 417.574219 168.03125 419.621094 168.597656 421.648438 169.210938 C 423.679688 169.828125 425.695312 170.496094 427.695312 171.210938 C 429.691406 171.925781 431.671875 172.6875 433.632812 173.5 C 435.59375 174.3125 437.535156 175.171875 439.453125 176.078125 C 441.371094 176.988281 443.265625 177.941406 445.140625 178.941406 C 447.011719 179.941406 448.855469 180.988281 450.675781 182.078125 C 452.496094 183.171875 454.289062 184.304688 456.054688 185.484375 C 457.820312 186.664062 459.554688 187.886719 461.257812 189.148438 C 462.964844 190.414062 464.636719 191.71875 466.277344 193.066406 C 467.917969 194.414062 469.523438 195.796875 471.097656 197.222656 C 472.671875 198.648438 474.207031 200.113281 475.707031 201.613281 Z M 475.707031 201.613281 " fill-opacity="1" fill-rule="nonzero"/><path fill="#000000" d="M 387.75 480.636719 L 380.257812 480.636719 C 274.289062 480.636719 185.050781 552.179688 158.15625 649.601562 C 219.058594 701.460938 297.929688 732.8125 384 732.8125 C 470.070312 732.8125 548.941406 701.460938 609.84375 649.601562 C 582.949219 552.1875 493.71875 480.636719 387.742188 480.636719 Z M 387.75 480.636719 " fill-opacity="1" fill-rule="nonzero"/></svg>