<svg xmlns="http://www.w3.org/2000/svg" xmlns:xlink="http://www.w3.org/1999/xlink" width="1024" zoomAndPan="magnify" viewBox="0 0 768 767.999994" height="1024" preserveAspectRatio="xMidYMid meet" version="1.0"><path fill="#000000" d="M 90.351562 647.496094 L 286.117188 647.496094 C 294.433594 647.496094 301.175781 640.757812 301.175781 632.445312 C 301.175781 624.132812 294.433594 617.390625 286.117188 617.390625 L 90.351562 617.390625 C 82.039062 617.390625 75.292969 624.132812 75.292969 632.445312 C 75.292969 640.757812 82.039062 647.496094 90.351562 647.496094 Z M 90.351562 647.496094 " fill-opacity="1" fill-rule="nonzero"/><path fill="#000000" d="M 90.351562 572.234375 L 286.117188 572.234375 C 294.433594 572.234375 301.175781 565.496094 301.175781 557.183594 C 301.175781 548.871094 294.433594 542.128906 286.117188 542.128906 L 90.351562 542.128906 C 82.039062 542.128906 75.292969 548.871094 75.292969 557.183594 C 75.292969 565.496094 82.039062 572.234375 90.351562 572.234375 Z M 90.351562 572.234375 " fill-opacity="1" fill-rule="nonzero"/><path fill="#000000" d="M 361.410156 647.496094 L 677.648438 647.496094 C 685.960938 647.496094 692.707031 640.757812 692.707031 632.445312 L 692.707031 557.183594 C 692.707031 548.871094 685.960938 542.128906 677.648438 542.128906 L 361.410156 542.128906 C 353.097656 542.128906 346.351562 548.871094 346.351562 557.183594 L 346.351562 632.445312 C 346.351562 640.757812 353.097656 647.496094 361.410156 647.496094 Z M 361.410156 647.496094 " fill-opacity="1" fill-rule="nonzero"/><path fill="#000000" d="M 384 240.863281 L 347.386719 240.863281 C 339.070312 240.863281 332.328125 247.601562 332.328125 255.914062 C 332.328125 264.226562 339.070312 270.96875 347.386719 270.96875 L 372.121094 270.96875 L 372.121094 286.363281 C 372.121094 294.675781 378.863281 301.417969 387.179688 301.417969 C 395.496094 301.417969 402.238281 294.675781 402.238281 286.363281 L 402.238281 267.632812 C 421.753906 260.25 435.675781 241.382812 435.675781 219.3125 C 435.675781 190.832031 412.492188 167.664062 384 167.664062 C 372.117188 167.664062 362.445312 157.996094 362.445312 146.117188 C 362.445312 134.238281 372.113281 124.574219 384 124.574219 L 420.613281 124.574219 C 428.929688 124.574219 435.671875 117.832031 435.671875 109.519531 C 435.671875 101.207031 428.929688 94.46875 420.613281 94.46875 L 399.058594 94.46875 L 399.058594 75.375 C 399.058594 67.0625 392.316406 60.324219 384 60.324219 C 375.683594 60.324219 368.941406 67.0625 368.941406 75.375 L 368.941406 96.710938 C 347.773438 103.171875 332.328125 122.875 332.328125 146.117188 C 332.328125 174.597656 355.507812 197.769531 384 197.769531 C 395.886719 197.769531 405.554688 207.433594 405.554688 219.3125 C 405.554688 231.195312 395.886719 240.863281 384 240.863281 Z M 384 240.863281 " fill-opacity="1" fill-rule="nonzero"/><path fill="#000000" d="M 707.765625 256.132812 L 548.253906 256.132812 C 558.808594 233.207031 564.707031 207.714844 564.707031 180.871094 C 564.707031 81.269531 483.640625 0.242188 384 0.242188 C 284.359375 0.242188 203.292969 81.269531 203.292969 180.871094 C 203.292969 207.714844 209.191406 233.207031 219.746094 256.132812 L 60.234375 256.132812 C 27.023438 256.132812 0 283.144531 0 316.34375 C 0 327.457031 0 651.410156 0 662.550781 C 0 695.75 27.023438 722.757812 60.234375 722.757812 L 707.765625 722.757812 C 740.976562 722.757812 768 695.75 768 662.550781 C 768 651.609375 768 337.078125 768 316.34375 C 768 283.144531 740.976562 256.132812 707.765625 256.132812 Z M 384 30.34375 C 467.035156 30.34375 534.589844 97.871094 534.589844 180.871094 C 534.589844 263.871094 467.035156 331.394531 384 331.394531 C 300.964844 331.394531 233.410156 263.871094 233.410156 180.871094 C 233.410156 97.871094 300.964844 30.34375 384 30.34375 Z M 30.117188 316.34375 C 30.117188 299.742188 43.628906 286.238281 60.234375 286.238281 L 237.316406 286.238281 C 250.09375 303.960938 266.003906 319.285156 284.230469 331.394531 L 30.117188 331.394531 Z M 737.882812 662.550781 C 737.882812 679.148438 724.371094 692.65625 707.765625 692.65625 L 60.234375 692.65625 C 43.628906 692.65625 30.117188 679.148438 30.117188 662.550781 L 30.117188 451.816406 L 737.882812 451.816406 Z M 737.882812 331.394531 L 483.769531 331.394531 C 501.996094 319.285156 517.90625 303.960938 530.683594 286.238281 L 707.765625 286.238281 C 724.371094 286.238281 737.882812 299.742188 737.882812 316.34375 Z M 737.882812 331.394531 " fill-opacity="1" fill-rule="nonzero"/></svg>