<svg xmlns="http://www.w3.org/2000/svg" xmlns:xlink="http://www.w3.org/1999/xlink" width="1024" zoomAndPan="magnify" viewBox="0 0 768 767.999994" height="1024" preserveAspectRatio="xMidYMid meet" version="1.0"><path fill="#000000" d="M 426.433594 662.976562 L 538.664062 668.152344 C 549.65625 668.707031 554.457031 673.382812 558.871094 680.679688 C 565.191406 691.203125 564.425781 705.570312 558.808594 716.519531 C 553.214844 727.40625 543.078125 733.410156 534.417969 733.410156 L 420.546875 733.410156 C 412.53125 731.171875 405.347656 724.574219 400.828125 715.808594 C 395.210938 704.921875 395.273438 690.972656 400.890625 680.03125 C 406.488281 669.144531 416.296875 663.039062 426.433594 662.976562 Z M 423.714844 571.480469 L 555.441406 578.171875 C 566.328125 578.777344 575.972656 584.394531 581.484375 595.175781 C 587.082031 606.0625 587.082031 620.003906 581.421875 631.007812 C 575.804688 641.964844 565.996094 648 555.828125 648.0625 L 427.082031 642.007812 C 416.195312 641.515625 406.488281 635.804688 400.996094 625.078125 C 395.011719 613.363281 393.414062 598.429688 398.546875 588.527344 C 404.207031 577.417969 414.175781 570.988281 423.714844 571.480469 Z M 566.550781 487.386719 C 576.746094 487.386719 586.484375 493.484375 592.101562 504.371094 C 597.65625 515.277344 597.65625 529.269531 591.976562 540.222656 C 586.539062 550.792969 575.199219 559.117188 565.230469 558.574219 L 464.296875 552.800781 C 475.738281 543.484375 483.355469 530.253906 481.722656 516.03125 L 478.523438 487.535156 Z M 580.441406 400.554688 C 590.636719 400.554688 600.375 406.558594 605.992188 417.445312 C 611.546875 428.382812 611.546875 442.335938 605.929688 453.273438 C 602.394531 460.09375 597.699219 466.472656 587.84375 466.472656 L 476.179688 466.617188 L 468.761719 400.722656 Z M 457.539062 3.925781 C 423.546875 3.433594 387.984375 6.75 354.199219 13.390625 C 300.15625 24.070312 250.808594 43.070312 220.027344 71.359375 C 217.839844 73.367188 216.59375 76.140625 216.59375 79.078125 C 216.59375 193.308594 232.972656 252.460938 267.699219 337.871094 C 272.816406 351.214844 292.855469 343.046875 287.09375 329.921875 C 253.539062 247.347656 238.714844 192.441406 238.066406 85.132812 C 264.363281 62.417969 308.28125 43.90625 358.300781 34.046875 C 406.832031 24.414062 458.964844 23.753906 503.480469 29.851562 C 481.355469 140.257812 491.929688 302.785156 509.523438 379.703125 L 466.378906 379.816406 L 465.394531 370.824219 C 463.660156 355.472656 457.9375 342.554688 447.800781 335.902344 C 436.203125 328.394531 425.835938 326.816406 414.070312 328.992188 L 308.542969 348.441406 C 281.046875 353.503906 264.867188 366.042969 250.871094 382.105469 L 199.597656 441.140625 C 198.070312 436.246094 196.492188 431.289062 194.753906 426.332031 C 193.289062 422.191406 189.304688 419.359375 184.890625 419.421875 L 86.351562 419.421875 C 72.066406 419.421875 71.375 440.335938 86.351562 440.335938 L 176.179688 440.335938 C 210.390625 542.625 202.117188 631.238281 177.265625 742.96875 L 86.351562 742.96875 C 71.582031 742.089844 71.582031 764.691406 86.351562 763.886719 L 186.261719 763.886719 C 191.15625 763.886719 195.363281 760.507812 196.449219 755.769531 C 220.589844 649.933594 231.761719 562.078125 206.648438 465.34375 L 266.726562 395.839844 C 279.332031 381.355469 288.953125 373.40625 312.382812 369.097656 L 417.847656 349.605469 C 435.0625 346.433594 443.074219 360.175781 444.550781 373.238281 L 460.773438 516.167969 C 461.871094 526.082031 454.683594 535.890625 443.609375 541.507812 C 432.550781 547.113281 417.785156 548.148438 407.324219 541.550781 C 395.296875 533.9375 391.3125 522.378906 389.238281 511.316406 L 374.042969 430.390625 C 373.226562 425.328125 368.8125 421.679688 363.6875 421.679688 C 357.046875 421.679688 352.085938 427.777344 353.445312 434.261719 L 375.839844 553.273438 C 380.515625 578.382812 351.273438 616.355469 289.289062 606.703125 C 275.167969 604.148438 271.851562 625.558594 286.015625 627.410156 C 324.109375 633.328125 354.972656 623.046875 374.480469 605.71875 C 374.972656 615.90625 377.976562 625.933594 382.390625 634.644531 C 386.089844 641.894531 391.320312 647.832031 397.324219 652.414062 C 391.28125 657.152344 386.050781 663.25 382.324219 670.496094 C 373.507812 687.648438 373.394531 708.28125 382.160156 725.453125 C 383.632812 728.285156 385.390625 730.941406 387.285156 733.460938 L 291.183594 733.410156 C 279.246094 733.460938 272.492188 730.628906 266.882812 726.171875 C 261.277344 721.644531 256.707031 714.890625 251.96875 706.722656 C 244.992188 694.632812 226.84375 705.089844 233.820312 717.179688 C 238.882812 725.953125 244.65625 735.210938 253.820312 742.519531 C 262.960938 749.808594 275.429688 754.492188 291.183594 754.390625 L 534.53125 754.390625 C 552.1875 754.390625 570.160156 744.035156 577.511719 726.183594 C 587.15625 702.644531 583.882812 684.070312 574.019531 665.289062 C 585.03125 660.707031 594.183594 651.984375 600.0625 640.605469 C 608.890625 623.457031 608.996094 602.800781 600.230469 585.660156 C 597.445312 580.316406 593.859375 575.695312 589.769531 571.773438 C 598.429688 566.804688 605.785156 559.296875 610.625 549.863281 C 619.453125 532.710938 619.453125 512.003906 610.6875 494.917969 C 608.671875 490.941406 606.171875 487.28125 603.335938 484.019531 C 613.898438 479.167969 620.886719 470.015625 624.515625 462.9375 C 633.34375 445.765625 633.34375 425.070312 624.578125 407.96875 C 615.8125 390.820312 598.984375 379.597656 580.347656 379.597656 L 564.207031 379.648438 C 592.375 305.304688 637.746094 237.921875 685.410156 206.328125 C 690.046875 203.285156 691.519531 197.128906 688.738281 192.347656 C 677.035156 172.027344 657.914062 158.726562 635.75 158.527344 C 623.105469 158.359375 620.550781 176.335938 632.257812 177.8125 C 647.390625 179.703125 657.140625 185.757812 665.109375 195.671875 C 630.027344 221.042969 600.125 259.121094 575.941406 303.191406 C 590.984375 217.832031 606.179688 150.066406 635.039062 98.226562 C 637.484375 93.75 636.410156 88.144531 632.421875 84.921875 C 620.980469 75.773438 605.679688 69.078125 588.785156 65.804688 C 580.347656 64.175781 571.527344 63.410156 562.535156 63.632812 C 553.589844 63.851562 544.554688 65.117188 535.671875 67.492188 C 521.457031 70.660156 527.167969 92.066406 541.070312 87.714844 C 566.957031 80.804688 595.230469 89.347656 612.382812 100.183594 C 576.421875 170.980469 561.601562 261.191406 541.78125 379.710938 L 531.039062 379.710938 C 513.445312 307.648438 500.371094 127.800781 524.785156 21.632812 C 526.09375 15.765625 522.210938 9.972656 516.28125 9 C 497.746094 5.808594 477.914062 4.1875 457.539062 3.925781 Z M 457.539062 3.925781 " fill-opacity="1" fill-rule="nonzero"/><path fill="#000000" d="M 432.207031 50.757812 L 307.78125 74.289062 C 301.671875 75.492188 297.96875 81.691406 299.757812 87.632812 C 303.148438 98.75 301.128906 110.722656 294.203125 120.042969 C 289.570312 126.304688 283.199219 130.875 276.003906 133.167969 C 271.601562 134.589844 268.652344 138.78125 268.714844 143.363281 C 269.917969 197.398438 284.300781 259.207031 307.382812 318.46875 C 312.289062 331.929688 332.390625 324.097656 326.953125 310.898438 C 305.15625 255.03125 292.039062 199.574219 290.34375 149.792969 C 297.867188 145.820312 305.867188 139.546875 311.042969 132.570312 C 319.328125 121.421875 323.074219 106.539062 322.101562 92.964844 L 415.628906 75.21875 C 412.585938 85.957031 413.015625 95.265625 416.507812 106.164062 C 420.984375 120.21875 432.300781 132.632812 444.945312 139.710938 C 439.9375 194.574219 443.472656 238.570312 449.789062 288.90625 C 451.546875 302.792969 472.402344 300.191406 470.667969 286.300781 C 464.296875 235.414062 461.191406 189.011719 466.523438 134.378906 C 467.015625 129.539062 464.128906 124.945312 459.558594 123.378906 C 448.546875 119.632812 440.050781 110.910156 436.515625 99.859375 C 433.023438 88.792969 434.988281 76.746094 441.789062 67.34375 C 447.144531 60.023438 441.140625 49.074219 432.207031 50.757812 Z M 432.207031 50.757812 " fill-opacity="1" fill-rule="evenodd"/></svg>