<svg xmlns="http://www.w3.org/2000/svg" xmlns:xlink="http://www.w3.org/1999/xlink" width="1024" zoomAndPan="magnify" viewBox="0 0 768 767.999994" height="1024" preserveAspectRatio="xMidYMid meet" version="1.0"><defs><clipPath id="de61174c55"><path d="M 40 0 L 729.898438 0 L 729.898438 767 L 40 767 Z M 40 0 " clip-rule="nonzero"/></clipPath></defs><g clip-path="url(#de61174c55)"><path fill="#ffffff" d="M 389.113281 0.742188 C 201.015625 0.742188 48.535156 153.222656 48.535156 341.316406 C 48.535156 418.140625 73.96875 489.003906 116.875 545.980469 L 40.851562 756.386719 C 38.476562 762.957031 45.65625 768.867188 51.644531 765.269531 L 244.074219 649.523438 C 288.082031 670.269531 337.234375 681.878906 389.113281 681.878906 C 577.207031 681.878906 729.6875 529.398438 729.6875 341.300781 C 729.6875 153.207031 577.207031 0.742188 389.113281 0.742188 Z M 380.460938 569.347656 C 347.785156 569.347656 321.292969 542.855469 321.292969 510.179688 C 321.292969 477.503906 347.785156 451.015625 380.460938 451.015625 C 413.136719 451.015625 439.628906 477.503906 439.628906 510.179688 C 439.628906 542.855469 413.136719 569.347656 380.460938 569.347656 Z M 524.808594 258.9375 C 524.808594 358.558594 455.183594 366.964844 433.578125 416.777344 C 429.367188 426.972656 423.976562 431.78125 413.167969 431.78125 L 345.347656 431.78125 C 333.34375 431.78125 326.148438 424.585938 328.535156 411.984375 C 342.945312 330.355469 402.953125 338.761719 415.570312 277.542969 C 419.171875 259.535156 409.570312 237.929688 386.15625 237.929688 C 357.953125 237.929688 344.140625 253.53125 339.945312 278.140625 C 338.152344 290.144531 332.152344 295.550781 320.144531 293.144531 L 251.714844 278.140625 C 240.921875 275.734375 235.515625 269.136719 236.113281 258.339844 C 239.710938 215.128906 262.527344 134.707031 386.15625 134.707031 C 520.597656 134.707031 525.390625 240.945312 524.792969 258.953125 Z M 524.808594 258.9375 " fill-opacity="1" fill-rule="nonzero"/></g></svg>