<svg xmlns="http://www.w3.org/2000/svg" xmlns:xlink="http://www.w3.org/1999/xlink" width="1024" zoomAndPan="magnify" viewBox="0 0 768 767.999994" height="1024" preserveAspectRatio="xMidYMid meet" version="1.0"><path fill="#46c143" d="M 768 384.230469 C 768 596.121094 595.929688 768.113281 384 768.113281 C 171.800781 768.113281 0 596.121094 0 384.230469 C 0 171.992188 171.800781 0 384 0 C 595.929688 0 768 171.992188 768 384.230469 Z M 768 384.230469 " fill-opacity="1" fill-rule="nonzero"/><path fill="#ffffff" d="M 494.285156 236.46875 C 494.285156 236.46875 384.652344 375.511719 336.039062 437.03125 C 306.007812 405.734375 273.253906 371.636719 273.253906 371.636719 C 253.324219 350.859375 220.453125 350.285156 199.566406 370.175781 C 178.945312 389.992188 178.253906 423.054688 198.066406 443.710938 L 302.324219 552.269531 C 312.691406 563.058594 327.476562 569.011719 342.453125 568.242188 C 357.503906 567.511719 371.367188 560.410156 380.734375 548.621094 L 576 301.171875 C 593.855469 278.59375 590.015625 245.761719 567.398438 228.097656 C 544.703125 210.164062 512.027344 214.195312 494.285156 236.46875 Z M 494.285156 236.46875 " fill-opacity="1" fill-rule="nonzero"/></svg>