<svg xmlns="http://www.w3.org/2000/svg" xmlns:xlink="http://www.w3.org/1999/xlink" width="779" zoomAndPan="magnify" viewBox="0 0 584.25 335.999987" height="448" preserveAspectRatio="xMidYMid meet" version="1.0"><defs><clipPath id="199efbe586"><path d="M 117.203125 0.214844 L 452.773438 0.214844 L 452.773438 335.785156 L 117.203125 335.785156 Z M 117.203125 0.214844 " clip-rule="nonzero"/></clipPath><clipPath id="49ed42d932"><path d="M 193 109 L 395.929688 109 L 395.929688 234.964844 L 193 234.964844 Z M 193 109 " clip-rule="nonzero"/></clipPath><clipPath id="32537b82db"><path d="M 188 100.886719 L 390 100.886719 L 390 227 L 188 227 Z M 188 100.886719 " clip-rule="nonzero"/></clipPath></defs><g clip-path="url(#199efbe586)"><path fill="#ffffff" d="M 284.988281 0.214844 C 312.25 27.078125 302.605469 25.550781 336.832031 8.425781 C 354.460938 42.398438 345.765625 37.96875 383.605469 32.261719 C 389.875 70.015625 382.972656 63.113281 420.730469 69.375 C 415.019531 107.21875 410.589844 98.527344 444.5625 116.152344 C 427.4375 150.378906 425.910156 140.738281 452.773438 168 C 425.910156 195.261719 427.4375 185.621094 444.5625 219.847656 C 410.589844 237.476562 415.019531 228.777344 420.730469 266.621094 C 382.972656 272.890625 389.875 265.984375 383.609375 303.742188 C 345.769531 298.03125 354.460938 293.601562 336.835938 327.574219 C 302.609375 310.449219 312.25 308.921875 284.988281 335.785156 C 257.722656 308.921875 267.367188 310.449219 233.140625 327.574219 C 215.511719 293.601562 224.210938 298.03125 186.367188 303.742188 C 180.097656 265.984375 187.003906 272.890625 149.246094 266.625 C 154.957031 228.78125 159.382812 237.476562 125.414062 219.851562 C 142.785156 185.128906 145.300781 196.511719 117.203125 168 C 144.0625 140.738281 142.539062 150.378906 125.414062 116.15625 C 159.382812 98.527344 154.957031 107.222656 149.246094 69.378906 C 187.003906 63.113281 180.097656 70.015625 186.363281 32.261719 C 224.207031 37.96875 215.511719 42.398438 233.136719 8.425781 C 267.367188 25.550781 257.726562 27.078125 284.988281 0.214844 Z M 284.988281 0.214844 " fill-opacity="1" fill-rule="evenodd"/></g><path fill="#ea6e19" d="M 286.023438 20.765625 C 289.316406 24.015625 292.003906 26.796875 294.261719 29.128906 C 299.882812 34.945312 302.695312 37.863281 305.527344 38.308594 C 308.355469 38.753906 311.933594 36.851562 319.085938 33.054688 C 321.859375 31.582031 325.167969 29.824219 329.5 27.65625 C 330.222656 27.296875 331.097656 27.585938 331.464844 28.296875 L 331.46875 28.296875 C 333.652344 32.507812 335.316406 35.917969 336.714844 38.78125 C 340.265625 46.058594 342.042969 49.699219 344.597656 51 C 347.160156 52.304688 351.144531 51.605469 359.117188 50.203125 C 362.316406 49.636719 366.132812 48.964844 370.691406 48.277344 C 371.496094 48.15625 372.25 48.710938 372.367188 49.515625 L 372.378906 49.589844 C 373.136719 54.15625 373.664062 57.925781 374.113281 61.09375 C 375.238281 69.113281 375.804688 73.121094 377.832031 75.148438 L 377.832031 75.152344 L 377.835938 75.148438 C 379.867188 77.179688 383.878906 77.746094 391.890625 78.871094 C 395.078125 79.320312 398.878906 79.855469 403.492188 80.621094 C 404.28125 80.75 404.828125 81.492188 404.707031 82.289062 L 404.710938 82.289062 C 404.019531 86.851562 403.351562 90.664062 402.785156 93.863281 C 401.382812 101.835938 400.683594 105.824219 401.988281 108.382812 C 403.289062 110.941406 406.929688 112.714844 414.207031 116.269531 C 417.070312 117.664062 420.480469 119.328125 424.691406 121.511719 C 425.417969 121.882812 425.703125 122.773438 425.328125 123.496094 L 425.292969 123.558594 C 423.140625 127.851562 421.398438 131.140625 419.929688 133.894531 C 416.128906 141.050781 414.226562 144.628906 414.675781 147.457031 C 415.125 150.292969 418.039062 153.109375 423.859375 158.730469 C 426.1875 160.984375 428.972656 163.671875 432.21875 166.964844 C 432.78125 167.539062 432.78125 168.457031 432.21875 169.027344 C 428.972656 172.320312 426.1875 175.011719 423.855469 177.265625 C 418.039062 182.890625 415.121094 185.703125 414.675781 188.535156 C 414.230469 191.367188 416.132812 194.941406 419.925781 202.089844 C 421.402344 204.867188 423.164062 208.175781 425.328125 212.511719 C 425.6875 213.230469 425.402344 214.105469 424.6875 214.46875 L 424.6875 214.476562 C 420.476562 216.65625 417.066406 218.320312 414.203125 219.722656 C 406.925781 223.273438 403.285156 225.050781 401.984375 227.605469 C 400.679688 230.167969 401.378906 234.152344 402.78125 242.128906 C 403.347656 245.328125 404.019531 249.140625 404.707031 253.699219 C 404.828125 254.503906 404.273438 255.257812 403.46875 255.378906 L 403.394531 255.390625 C 398.832031 256.144531 395.058594 256.675781 391.890625 257.121094 C 383.871094 258.246094 379.859375 258.8125 377.835938 260.84375 L 377.832031 260.84375 L 377.835938 260.84375 C 375.804688 262.878906 375.238281 266.886719 374.113281 274.898438 C 373.664062 278.082031 373.128906 281.886719 372.363281 286.496094 C 372.234375 287.292969 371.492188 287.832031 370.695312 287.714844 L 370.695312 287.71875 C 366.136719 287.03125 362.320312 286.355469 359.121094 285.792969 C 351.148438 284.390625 347.164062 283.6875 344.601562 284.992188 C 342.046875 286.292969 340.269531 289.9375 336.714844 297.210938 C 335.320312 300.078125 333.65625 303.488281 331.472656 307.699219 C 331.101562 308.421875 330.210938 308.707031 329.488281 308.332031 L 329.425781 308.296875 C 325.132812 306.148438 321.84375 304.40625 319.089844 302.9375 C 311.933594 299.132812 308.355469 297.234375 305.527344 297.679688 C 302.691406 298.132812 299.878906 301.042969 294.253906 306.867188 C 292 309.199219 289.3125 311.980469 286.023438 315.222656 C 285.445312 315.789062 284.527344 315.789062 283.957031 315.222656 C 280.664062 311.976562 277.976562 309.195312 275.71875 306.863281 C 270.09375 301.042969 267.285156 298.128906 264.449219 297.679688 C 261.621094 297.234375 258.046875 299.136719 250.890625 302.9375 C 248.117188 304.410156 244.808594 306.167969 240.476562 308.335938 C 239.753906 308.695312 238.882812 308.40625 238.515625 307.695312 L 238.507812 307.699219 C 236.328125 303.484375 234.664062 300.074219 233.261719 297.207031 C 229.714844 289.933594 227.9375 286.292969 225.382812 284.988281 C 222.820312 283.683594 218.835938 284.386719 210.859375 285.792969 C 207.664062 286.351562 203.847656 287.027344 199.289062 287.714844 C 198.480469 287.832031 197.730469 287.28125 197.609375 286.476562 L 197.597656 286.398438 C 196.84375 281.835938 196.3125 278.0625 195.867188 274.894531 C 194.738281 266.878906 194.171875 262.867188 192.148438 260.84375 L 192.144531 260.839844 L 192.136719 260.851562 C 190.101562 258.820312 186.09375 258.253906 178.082031 257.128906 C 174.898438 256.679688 171.09375 256.144531 166.484375 255.378906 C 165.691406 255.25 165.148438 254.503906 165.265625 253.710938 L 165.265625 253.707031 C 165.953125 249.148438 166.621094 245.335938 167.1875 242.136719 C 168.59375 234.160156 169.292969 230.175781 167.988281 227.613281 C 166.6875 225.058594 163.046875 223.28125 155.765625 219.726562 C 152.90625 218.332031 149.492188 216.667969 145.28125 214.484375 C 144.558594 214.109375 144.273438 213.222656 144.648438 212.496094 L 144.679688 212.4375 C 147.246094 207.3125 149.386719 203.429688 151.105469 200.3125 C 154.457031 194.226562 156.160156 191.144531 155.769531 188.683594 C 155.363281 186.121094 152.597656 183.464844 146.980469 178.082031 C 144.46875 175.667969 141.40625 172.730469 137.757812 169.03125 C 137.191406 168.457031 137.195312 167.535156 137.757812 166.964844 C 141.003906 163.671875 143.789062 160.984375 146.121094 158.726562 C 151.9375 153.105469 154.851562 150.292969 155.296875 147.460938 C 155.746094 144.632812 153.84375 141.054688 150.046875 133.902344 C 148.574219 131.125 146.8125 127.820312 144.648438 123.484375 C 144.289062 122.765625 144.574219 121.890625 145.289062 121.523438 L 145.285156 121.519531 C 149.496094 119.335938 152.910156 117.671875 155.769531 116.273438 C 163.050781 112.722656 166.691406 110.945312 167.992188 108.390625 C 169.296875 105.828125 168.597656 101.84375 167.191406 93.871094 C 166.625 90.671875 165.957031 86.859375 165.265625 82.296875 C 165.144531 81.492188 165.703125 80.738281 166.503906 80.621094 L 166.578125 80.609375 C 171.144531 79.851562 174.914062 79.324219 178.085938 78.875 C 186.101562 77.75 190.113281 77.183594 192.140625 75.15625 L 192.144531 75.15625 L 192.136719 75.148438 C 194.167969 73.113281 194.734375 69.109375 195.859375 61.09375 C 196.308594 57.910156 196.84375 54.109375 197.609375 49.5 C 197.742188 48.703125 198.484375 48.160156 199.277344 48.28125 L 199.28125 48.277344 C 203.839844 48.964844 207.65625 49.636719 210.851562 50.203125 C 218.828125 51.605469 222.8125 52.304688 225.375 51 C 227.929688 49.699219 229.707031 46.058594 233.257812 38.78125 C 234.65625 35.917969 236.320312 32.507812 238.5 28.296875 C 238.875 27.570312 239.761719 27.285156 240.488281 27.660156 L 240.550781 27.695312 C 244.84375 29.847656 248.128906 31.589844 250.882812 33.058594 C 258.039062 36.859375 261.617188 38.757812 264.445312 38.3125 C 267.285156 37.863281 270.097656 34.949219 275.71875 29.128906 C 277.976562 26.800781 280.660156 24.015625 283.953125 20.769531 C 284.527344 20.199219 285.449219 20.203125 286.023438 20.765625 Z M 292.140625 31.167969 C 290.144531 29.101562 287.808594 26.683594 284.988281 23.882812 C 282.171875 26.683594 279.832031 29.105469 277.839844 31.164062 C 271.757812 37.460938 268.714844 40.609375 264.90625 41.214844 C 261.09375 41.820312 257.230469 39.765625 249.503906 35.660156 C 246.90625 34.277344 243.859375 32.65625 240.453125 30.941406 C 238.6875 34.394531 237.1875 37.457031 235.910156 40.078125 C 232.074219 47.945312 230.152344 51.882812 226.714844 53.632812 C 223.28125 55.378906 218.96875 54.621094 210.351562 53.109375 C 207.527344 52.609375 204.214844 52.027344 200.28125 51.417969 C 199.652344 55.296875 199.183594 58.644531 198.785156 61.503906 C 197.5625 70.175781 196.953125 74.515625 194.226562 77.238281 L 194.21875 77.230469 C 191.488281 79.960938 187.152344 80.570312 178.484375 81.789062 C 175.621094 82.1875 172.277344 82.660156 168.398438 83.289062 C 169.007812 87.222656 169.589844 90.53125 170.089844 93.355469 C 171.605469 101.972656 172.367188 106.289062 170.617188 109.722656 C 168.867188 113.15625 164.929688 115.082031 157.058594 118.917969 C 154.441406 120.195312 151.378906 121.691406 147.921875 123.464844 C 149.644531 126.867188 151.265625 129.914062 152.648438 132.511719 C 156.75 140.234375 158.804688 144.101562 158.195312 147.917969 C 157.59375 151.726562 154.445312 154.765625 148.152344 160.84375 C 146.089844 162.84375 143.671875 165.179688 140.871094 168 C 144.054688 171.203125 146.761719 173.796875 149.023438 175.964844 C 155.109375 181.804688 158.113281 184.683594 158.671875 188.226562 C 159.21875 191.6875 157.355469 195.070312 153.691406 201.726562 C 152.089844 204.628906 150.132812 208.179688 147.925781 212.53125 C 151.378906 214.304688 154.441406 215.800781 157.0625 217.078125 C 164.933594 220.914062 168.871094 222.839844 170.621094 226.273438 C 172.367188 229.707031 171.609375 234.019531 170.09375 242.636719 C 169.597656 245.460938 169.011719 248.773438 168.402344 252.707031 C 172.285156 253.335938 175.628906 253.804688 178.488281 254.203125 C 187.164062 255.425781 191.503906 256.035156 194.222656 258.761719 L 194.21875 258.769531 C 196.945312 261.5 197.554688 265.835938 198.777344 274.507812 C 199.175781 277.367188 199.648438 280.707031 200.273438 284.589844 C 204.210938 283.976562 207.519531 283.394531 210.34375 282.898438 C 218.960938 281.382812 223.273438 280.621094 226.710938 282.371094 C 230.144531 284.125 232.070312 288.058594 235.90625 295.929688 C 237.183594 298.546875 238.679688 301.609375 240.449219 305.066406 C 243.855469 303.34375 246.902344 301.722656 249.5 300.34375 C 257.222656 296.238281 261.085938 294.183594 264.902344 294.789062 C 268.710938 295.390625 271.753906 298.542969 277.832031 304.835938 C 279.828125 306.898438 282.167969 309.316406 284.984375 312.121094 C 287.800781 309.320312 290.136719 306.902344 292.132812 304.839844 C 298.214844 298.542969 301.257812 295.390625 305.066406 294.789062 C 308.882812 294.183594 312.746094 296.242188 320.472656 300.34375 C 323.070312 301.726562 326.117188 303.347656 329.519531 305.066406 C 331.289062 301.613281 332.789062 298.550781 334.066406 295.929688 C 337.902344 288.058594 339.824219 284.121094 343.261719 282.371094 C 346.691406 280.625 351.007812 281.382812 359.625 282.898438 C 362.449219 283.390625 365.761719 283.976562 369.695312 284.589844 C 370.324219 280.707031 370.792969 277.359375 371.191406 274.5 C 372.410156 265.828125 373.023438 261.488281 375.746094 258.769531 L 375.75 258.769531 C 378.476562 256.042969 382.816406 255.429688 391.484375 254.210938 C 394.34375 253.8125 397.6875 253.339844 401.570312 252.714844 C 400.957031 248.777344 400.378906 245.46875 399.878906 242.644531 C 398.359375 234.027344 397.601562 229.714844 399.355469 226.277344 C 401.101562 222.84375 405.039062 220.921875 412.910156 217.082031 C 415.523438 215.804688 418.59375 214.3125 422.046875 212.535156 C 420.324219 209.132812 418.707031 206.085938 417.324219 203.488281 C 413.214844 195.765625 411.164062 191.902344 411.769531 188.082031 C 412.375 184.277344 415.519531 181.234375 421.816406 175.15625 C 423.878906 173.15625 426.300781 170.820312 429.101562 168.003906 C 426.304688 165.1875 423.882812 162.851562 421.820312 160.855469 C 415.519531 154.773438 412.375 151.730469 411.769531 147.921875 C 411.164062 144.109375 413.21875 140.242188 417.324219 132.515625 C 418.707031 129.917969 420.328125 126.871094 422.046875 123.46875 C 418.59375 121.699219 415.527344 120.199219 412.910156 118.921875 C 405.042969 115.085938 401.101562 113.164062 399.355469 109.726562 C 397.605469 106.296875 398.359375 101.980469 399.878906 93.363281 C 400.375 90.539062 400.957031 87.226562 401.570312 83.296875 C 397.6875 82.664062 394.339844 82.195312 391.480469 81.796875 C 382.808594 80.578125 378.472656 79.964844 375.746094 77.242188 L 375.75 77.234375 C 373.023438 74.507812 372.410156 70.171875 371.191406 61.503906 C 370.792969 58.644531 370.320312 55.300781 369.695312 51.417969 C 365.761719 52.03125 362.449219 52.609375 359.625 53.109375 C 351.007812 54.625 346.691406 55.386719 343.261719 53.632812 C 339.824219 51.886719 337.902344 47.945312 334.066406 40.082031 C 332.785156 37.464844 331.289062 34.398438 329.519531 30.945312 C 326.117188 32.660156 323.070312 34.285156 320.46875 35.664062 C 312.742188 39.773438 308.882812 41.824219 305.066406 41.21875 C 301.261719 40.609375 298.214844 37.464844 292.140625 31.167969 Z M 292.140625 31.167969 " fill-opacity="1" fill-rule="evenodd"/><g clip-path="url(#49ed42d932)"><path fill="#870303" d="M 377.542969 174.996094 L 381.949219 174.996094 C 385.960938 174.996094 389.734375 176.796875 392.261719 179.914062 C 394.773438 183.015625 395.757812 187.121094 394.921875 191.023438 L 394.023438 195.242188 C 393.394531 198.207031 391.800781 200.757812 389.621094 202.605469 C 389.628906 203.558594 389.53125 204.515625 389.332031 205.460938 L 388.429688 209.675781 C 387.261719 215.160156 382.8125 219.238281 377.402344 220.035156 L 376.546875 224.085938 C 375.253906 230.222656 369.839844 234.609375 363.570312 234.609375 L 358.34375 234.609375 C 355.171875 234.609375 352.144531 233.484375 349.769531 231.46875 C 347.4375 233.441406 344.429688 234.609375 341.195312 234.609375 L 335.96875 234.609375 C 333.984375 234.609375 332.058594 234.171875 330.3125 233.347656 C 327.441406 234.5 324.234375 235.109375 320.777344 235.109375 C 312.175781 235.109375 305.074219 231.410156 301.238281 225.375 C 294.191406 230.578125 285.214844 233.34375 274.753906 233.34375 C 260.316406 233.34375 248.394531 228.269531 241.34375 219.304688 L 241.160156 220.183594 C 239.703125 227.074219 233.644531 231.984375 226.601562 231.984375 L 212.003906 231.984375 C 207.464844 231.984375 203.238281 229.957031 200.398438 226.417969 C 197.574219 222.898438 196.5 218.285156 197.476562 213.882812 L 209.09375 161.566406 L 208.277344 161.566406 C 204.019531 161.566406 200.027344 159.785156 197.1875 156.609375 C 194.355469 153.441406 193.019531 149.25 193.492188 145.027344 L 194.417969 136.796875 C 195.253906 129.320312 201.53125 123.65625 209.054688 123.582031 C 215.613281 123.515625 220.917969 124 225.011719 118.335938 C 227.824219 114.441406 232.269531 112.171875 237.070312 112.171875 L 245.644531 112.171875 C 250.15625 112.171875 254.363281 114.175781 257.203125 117.683594 C 257.773438 118.382812 258.273438 119.128906 258.699219 119.90625 C 265.914062 113.941406 275.441406 110.8125 286.855469 110.8125 C 298.316406 110.8125 308.226562 114.074219 315.351562 119.964844 C 319.359375 113.039062 326.429688 109.046875 335.300781 109.046875 C 341.652344 109.046875 347.160156 111.132812 351.089844 114.695312 C 353.691406 111.601562 357.515625 109.800781 361.605469 109.800781 L 365.398438 109.800781 C 370.542969 109.800781 375.226562 112.648438 377.597656 117.210938 C 379.964844 121.765625 379.597656 127.253906 376.644531 131.453125 L 372.84375 136.863281 C 379.867188 141.230469 383.605469 149.355469 381.464844 159.078125 L 379.210938 169.761719 C 378.8125 171.628906 378.253906 173.378906 377.542969 174.996094 Z M 377.542969 174.996094 " fill-opacity="1" fill-rule="evenodd"/></g><g clip-path="url(#32537b82db)"><path fill="#ea6e19" d="M 372.273438 166.839844 L 376.679688 166.839844 C 380.691406 166.839844 384.464844 168.640625 386.988281 171.757812 C 389.5 174.863281 390.484375 178.960938 389.652344 182.867188 L 388.753906 187.085938 C 388.121094 190.050781 386.53125 192.605469 384.347656 194.449219 C 384.355469 195.402344 384.261719 196.359375 384.058594 197.304688 L 383.160156 201.519531 C 381.992188 207.003906 377.542969 211.082031 372.132812 211.878906 L 371.277344 215.929688 C 369.980469 222.066406 364.570312 226.453125 358.296875 226.453125 L 353.074219 226.453125 C 349.898438 226.453125 346.875 225.328125 344.5 223.3125 C 342.167969 225.285156 339.160156 226.453125 335.921875 226.453125 L 330.699219 226.453125 C 328.714844 226.453125 326.785156 226.011719 325.039062 225.191406 C 322.171875 226.34375 318.964844 226.953125 315.507812 226.953125 C 306.90625 226.953125 299.800781 223.253906 295.964844 217.21875 C 288.921875 222.421875 279.941406 225.1875 269.484375 225.1875 C 255.046875 225.1875 243.125 220.113281 236.074219 211.148438 L 235.886719 212.027344 C 234.433594 218.917969 228.375 223.828125 221.332031 223.828125 L 206.730469 223.828125 C 202.191406 223.828125 197.96875 221.800781 195.128906 218.261719 C 192.304688 214.742188 191.230469 210.128906 192.207031 205.726562 L 203.820312 153.410156 L 203.007812 153.410156 C 198.746094 153.410156 194.757812 151.625 191.917969 148.453125 C 189.085938 145.285156 187.75 141.09375 188.222656 136.871094 L 189.144531 128.640625 C 189.984375 121.164062 196.261719 115.5 203.785156 115.421875 C 210.34375 115.359375 215.648438 115.84375 219.738281 110.179688 C 222.554688 106.285156 226.996094 104.015625 231.800781 104.015625 L 240.371094 104.015625 C 244.886719 104.015625 249.089844 106.019531 251.933594 109.527344 C 252.5 110.230469 253 110.972656 253.425781 111.75 C 260.644531 105.785156 270.171875 102.65625 281.582031 102.65625 C 293.042969 102.65625 302.957031 105.917969 310.082031 111.808594 C 314.085938 104.882812 321.15625 100.890625 330.03125 100.890625 C 336.382812 100.890625 341.890625 102.976562 345.816406 106.539062 C 348.417969 103.445312 352.246094 101.644531 356.335938 101.644531 L 360.128906 101.644531 C 365.269531 101.644531 369.957031 104.492188 372.328125 109.054688 C 374.691406 113.609375 374.324219 119.097656 371.375 123.296875 L 367.570312 128.710938 C 374.59375 133.074219 378.335938 141.199219 376.195312 150.921875 L 373.9375 161.605469 C 373.542969 163.472656 372.984375 165.222656 372.273438 166.839844 Z M 372.273438 166.839844 " fill-opacity="1" fill-rule="evenodd"/></g><path fill="#ffffff" d="M 221.332031 211.5 L 206.734375 211.5 C 205.933594 211.5 205.242188 211.171875 204.742188 210.546875 C 204.242188 209.921875 204.066406 209.179688 204.242188 208.398438 L 218.496094 144.1875 C 218.671875 143.40625 218.496094 142.664062 217.996094 142.039062 C 217.496094 141.414062 216.804688 141.082031 216.007812 141.082031 L 203.007812 141.082031 C 202.253906 141.082031 201.605469 140.792969 201.105469 140.230469 C 200.605469 139.671875 200.386719 138.996094 200.472656 138.246094 L 201.394531 130.015625 C 201.539062 128.726562 202.609375 127.761719 203.90625 127.75 C 216.242188 127.628906 223.3125 126.28125 229.730469 117.398438 C 230.226562 116.714844 230.953125 116.34375 231.800781 116.34375 L 240.371094 116.34375 C 241.167969 116.34375 241.851562 116.667969 242.355469 117.289062 C 242.855469 117.90625 243.03125 118.640625 242.867188 119.421875 L 223.828125 209.476562 C 223.574219 210.671875 222.550781 211.5 221.332031 211.5 Z M 269.484375 212.859375 C 250.113281 212.859375 238.203125 202.144531 242.296875 182.546875 L 251.40625 139.316406 C 254.847656 123.09375 264.90625 114.984375 281.582031 114.984375 C 300.664062 114.984375 312.855469 125.734375 308.773438 145.296875 L 299.664062 188.527344 C 296.332031 204.484375 285.851562 212.859375 269.484375 212.859375 Z M 269.890625 196.277344 C 275.691406 196.277344 279.226562 193.195312 280.496094 187.03125 C 281.730469 181.125 290.285156 142.273438 290.285156 139.722656 C 290.285156 134.230469 286.558594 131.566406 281.039062 131.566406 C 275.238281 131.566406 271.75 134.601562 270.574219 140.675781 C 269.265625 147.117188 260.785156 185.25 260.785156 188.253906 C 260.785156 193.703125 264.507812 196.277344 269.890625 196.277344 Z M 269.890625 196.277344 " fill-opacity="1" fill-rule="nonzero"/><path fill="#ffffff" d="M 326.476562 143.324219 C 319.433594 143.324219 315.511719 139.339844 317.019531 132.582031 L 319.285156 121.851562 C 319.289062 121.84375 319.289062 121.839844 319.292969 121.832031 C 320.605469 116.085938 324.183594 113.21875 330.03125 113.21875 C 337.015625 113.21875 341 117.171875 339.488281 123.957031 L 337.21875 134.699219 C 335.957031 140.449219 332.375 143.324219 326.476562 143.324219 Z M 324.90625 166.925781 L 321.042969 166.925781 C 320.5 166.925781 320.03125 166.640625 319.78125 166.160156 C 319.53125 165.675781 319.570312 165.132812 319.882812 164.6875 L 355.175781 114.574219 C 355.449219 114.1875 355.859375 113.972656 356.335938 113.972656 L 360.128906 113.972656 C 360.671875 113.972656 361.136719 114.257812 361.386719 114.738281 C 361.636719 115.21875 361.601562 115.765625 361.289062 116.210938 L 326.066406 166.320312 C 325.792969 166.710938 325.382812 166.925781 324.90625 166.925781 Z M 326.625 137.648438 C 328.640625 137.648438 329.898438 136.570312 330.40625 134.414062 C 330.410156 134.402344 330.410156 134.390625 330.414062 134.378906 L 333.023438 121.84375 C 333.050781 121.722656 333.058594 121.617188 333.054688 121.492188 C 332.976562 119.757812 331.871094 118.890625 329.726562 118.890625 C 327.761719 118.890625 326.550781 119.949219 326.097656 122.066406 L 323.609375 133.683594 C 323.605469 133.703125 323.597656 133.722656 323.59375 133.746094 C 323.175781 135.328125 323.78125 137.648438 326.625 137.648438 Z M 351.136719 167.679688 C 344.09375 167.679688 340.171875 163.695312 341.679688 156.9375 L 343.945312 146.210938 C 343.949219 146.203125 343.949219 146.195312 343.953125 146.1875 C 345.265625 140.445312 348.84375 137.574219 354.691406 137.574219 C 361.675781 137.574219 365.660156 141.53125 364.148438 148.316406 L 361.878906 159.058594 C 360.617188 164.804688 357.035156 167.679688 351.136719 167.679688 Z M 351.289062 162.007812 C 353.296875 162.007812 354.558594 160.929688 355.066406 158.769531 C 355.066406 158.757812 355.070312 158.75 355.074219 158.734375 L 357.683594 146.203125 C 357.710938 146.082031 357.71875 145.976562 357.710938 145.851562 C 357.636719 144.113281 356.527344 143.246094 354.390625 143.246094 C 352.421875 143.246094 351.210938 144.304688 350.757812 146.425781 L 348.269531 158.039062 C 348.265625 158.0625 348.257812 158.082031 348.253906 158.105469 C 347.839844 159.683594 348.441406 162.007812 351.289062 162.007812 Z M 351.289062 162.007812 " fill-opacity="1" fill-rule="nonzero"/><path fill="#ffffff" d="M 357.214844 174.632812 C 358.085938 174.171875 359.078125 173.914062 360.121094 173.914062 L 376.683594 173.914062 C 378.5625 173.914062 380.316406 174.746094 381.496094 176.207031 C 382.671875 177.660156 383.128906 179.566406 382.738281 181.394531 L 381.839844 185.613281 C 381.230469 188.472656 378.71875 190.507812 375.796875 190.515625 C 375.832031 190.554688 375.867188 190.597656 375.902344 190.644531 C 377.078125 192.097656 377.535156 194.003906 377.144531 195.828125 L 376.246094 200.046875 C 375.636719 202.910156 373.117188 204.949219 370.191406 204.949219 L 366.371094 204.949219 L 364.359375 214.46875 C 363.753906 217.335938 361.234375 219.382812 358.300781 219.382812 L 353.078125 219.382812 C 351.199219 219.382812 349.445312 218.546875 348.265625 217.085938 C 347.089844 215.632812 346.632812 213.726562 347.023438 211.902344 L 348.511719 204.910156 C 348.28125 204.933594 348.050781 204.949219 347.816406 204.949219 L 343.996094 204.949219 L 341.984375 214.46875 C 341.378906 217.335938 338.859375 219.382812 335.925781 219.382812 L 330.703125 219.382812 C 328.824219 219.382812 327.074219 218.546875 325.890625 217.085938 C 325.816406 216.992188 325.746094 216.902344 325.679688 216.804688 C 322.96875 218.8125 319.515625 219.878906 315.511719 219.878906 C 305.171875 219.878906 298.148438 212.992188 300.382812 202.40625 L 303.726562 186.523438 C 305.5 178.101562 311.363281 173.414062 319.957031 173.414062 C 324.941406 173.414062 329.167969 175.042969 331.949219 177.921875 C 332.84375 175.539062 335.132812 173.914062 337.746094 173.914062 L 354.308594 173.914062 C 355.339844 173.914062 356.332031 174.164062 357.214844 174.632812 Z M 357.214844 174.632812 " fill-opacity="1" fill-rule="evenodd"/><path fill="#ea6e19" d="M 315.507812 214.625 C 308.390625 214.625 304.015625 210.691406 305.519531 203.488281 L 308.863281 187.605469 C 310.128906 181.648438 313.824219 178.667969 319.953125 178.667969 C 326.960938 178.667969 331.441406 182.617188 329.941406 189.804688 L 326.59375 205.6875 C 325.371094 211.550781 321.519531 214.625 315.507812 214.625 Z M 315.65625 208.535156 C 317.789062 208.535156 319.085938 207.402344 319.550781 205.136719 C 320.003906 202.964844 323.148438 188.695312 323.148438 187.757812 C 323.148438 185.738281 321.78125 184.761719 319.75 184.761719 C 317.621094 184.761719 316.339844 185.875 315.90625 188.105469 C 315.425781 190.472656 312.308594 204.484375 312.308594 205.585938 C 312.308594 207.589844 313.679688 208.535156 315.65625 208.535156 Z M 335.921875 214.128906 L 330.699219 214.128906 C 330.40625 214.128906 330.15625 214.007812 329.96875 213.78125 C 329.785156 213.550781 329.722656 213.28125 329.78125 212.996094 L 336.824219 179.910156 C 336.917969 179.472656 337.292969 179.167969 337.742188 179.167969 L 354.304688 179.167969 C 354.597656 179.167969 354.847656 179.285156 355.03125 179.515625 C 355.21875 179.742188 355.28125 180.011719 355.222656 180.296875 L 354.320312 184.515625 C 354.230469 184.953125 353.851562 185.257812 353.40625 185.257812 L 343.582031 185.257812 C 343.136719 185.257812 342.761719 185.5625 342.667969 186 L 341.273438 192.464844 C 341.210938 192.75 341.277344 193.023438 341.460938 193.25 C 341.644531 193.480469 341.894531 193.601562 342.191406 193.601562 L 348.710938 193.601562 C 349.003906 193.601562 349.253906 193.71875 349.4375 193.949219 C 349.621094 194.175781 349.6875 194.445312 349.628906 194.734375 L 348.726562 198.953125 C 348.636719 199.390625 348.257812 199.691406 347.8125 199.691406 L 340.488281 199.691406 C 340.042969 199.691406 339.664062 200 339.574219 200.4375 L 336.839844 213.382812 C 336.746094 213.820312 336.371094 214.128906 335.921875 214.128906 Z M 358.296875 214.128906 L 353.074219 214.128906 C 352.78125 214.128906 352.53125 214.007812 352.347656 213.78125 C 352.160156 213.550781 352.097656 213.28125 352.15625 212.996094 L 359.199219 179.910156 C 359.292969 179.472656 359.667969 179.167969 360.117188 179.167969 L 376.679688 179.167969 C 376.972656 179.167969 377.222656 179.285156 377.40625 179.515625 C 377.59375 179.742188 377.65625 180.011719 377.597656 180.296875 L 376.699219 184.515625 C 376.605469 184.953125 376.226562 185.257812 375.78125 185.257812 L 365.957031 185.257812 C 365.511719 185.257812 365.136719 185.5625 365.042969 186 L 363.648438 192.464844 C 363.585938 192.75 363.652344 193.023438 363.835938 193.25 C 364.019531 193.480469 364.273438 193.601562 364.566406 193.601562 L 371.085938 193.601562 C 371.378906 193.601562 371.628906 193.71875 371.8125 193.949219 C 372 194.175781 372.0625 194.445312 372.003906 194.734375 L 371.105469 198.953125 C 371.011719 199.390625 370.632812 199.691406 370.1875 199.691406 L 362.863281 199.691406 C 362.417969 199.691406 362.039062 200 361.949219 200.4375 L 359.214844 213.382812 C 359.121094 213.820312 358.746094 214.128906 358.296875 214.128906 Z M 358.296875 214.128906 " fill-opacity="1" fill-rule="nonzero"/></svg>